HIERARCHY
ROOT ui
{
	 OFFSET 0 0 0
	 CHANNELS 3 XPosition YPosition Z Position
	 EndSite
	 {
	 OFFSET 0 -1 0
	 }
}
ROOT li
{
	 OFFSET 0 0 0
	 CHANNELS 3 XPosition YPosition Z Position
	 EndSite
	 {
	 OFFSET 0 -1 0
	 }
}
ROOT ul
{
	 OFFSET 0 0 0
	 CHANNELS 3 XPosition YPosition Z Position
	 EndSite
	 {
	 OFFSET 0 -1 0
	 }
}
ROOT ll
{
	 OFFSET 0 0 0
	 CHANNELS 3 XPosition YPosition Z Position
	 EndSite
	 {
	 OFFSET 0 -1 0
	 }
}
ROOT tt
{
	 OFFSET 0 0 0
	 CHANNELS 3 XPosition YPosition Z Position
	 EndSite
	 {
	 OFFSET 0 -1 0
	 }
}
ROOT tb
{
	 OFFSET 0 0 0
	 CHANNELS 3 XPosition YPosition Z Position
	 EndSite
	 {
	 OFFSET 0 -1 0
	 }
}
ROOT td
{
	 OFFSET 0 0 0
	 CHANNELS 3 XPosition YPosition Z Position
	 EndSite
	 {
	 OFFSET 0 -1 0
	 }
}
ROOT v
{
	 OFFSET 0 0 0
	 CHANNELS 3 XPosition YPosition Z Position
	 EndSite
	 {
	 OFFSET 0 -1 0
	 }
}
ROOT bn
{
	 OFFSET 0 0 0
	 CHANNELS 3 XPosition YPosition Z Position
	 EndSite
	 {
	 OFFSET 0 -1 0
	 }
}
MOTION
Frames: 18
Frame Time: 0.002
0.011345155715942383	-2.313919961452484E-4	0		0.51392822265625	-2.321949462890625	0		-1.02836669921875	-0.10780585479736328	0		-0.788353759765625	-2.3986220703125	0		1.3407098388671874	-0.6590421142578125	0		3.0838876953125	-0.053857696533203124	0		4.6772021484375	-0.04451382446289062	0		5.64187255859375	0.1281820068359375	0		-0.16794935607910155	5.90808203125	0		
0.08080397033691407	-0.0049371647834777835	0		0.4824542541503906	-2.3193505859375	0		-1.0369466552734374	-0.11085465240478516	0		-0.8349059448242188	-2.398212158203125	0		1.3359443359375	-0.6592098388671875	0		3.084284423828125	-0.06187911224365234	0		4.68270947265625	-0.04632363510131836	0		5.6423349609375	0.11801905059814453	0		-0.03646286773681641	5.92855029296875	0		
-4.965560138225555E-4	-0.002332016944885254	0		0.5010330200195312	-2.324509521484375	0		-1.0413187255859375	-0.10997112274169922	0		-0.8182669677734375	-2.39676318359375	0		1.325222412109375	-0.6662703857421876	0		3.08810546875	-0.05192803573608398	0		4.6583671875	-0.047630859375	0		5.6290634765625	0.11611841583251953	0		-0.03818959426879883	5.9289951171875	0		
0.06927896881103515	-0.008103403091430664	0		0.4429990234375	-2.318443359375	0		-1.0454984130859375	-0.1091048583984375	0		-0.8353369140625	-2.39079833984375	0		1.3177578125	-0.6693616943359375	0		3.07088720703125	-0.056607452392578125	0		4.6742109375	-0.049511825561523434	0		5.6249794921875	0.11414774322509766	0		-0.03980101776123047	5.92943408203125	0		
-0.008540262222290039	-0.0014926830530166625	0		0.5029501953125	-2.330285888671875	0		-1.0435355224609375	-0.11336188507080078	0		-0.82150830078125	-2.40735498046875	0		1.32863916015625	-0.665736083984375	0		3.04085888671875	-0.06301871109008789	0		4.6502841796875	-0.05067940902709961	0		5.6111181640625	0.11242540740966797	0		-0.1736464080810547	5.9090537109375	0		
0.06782207489013672	-4.444609880447388E-4	0		0.4755196533203125	-2.32169140625	0		-1.0431719970703126	-0.10862104797363281	0		-0.8220405883789063	-2.40270068359375	0		1.32777001953125	-0.6629044799804688	0		3.0804228515625	-0.04953575897216797	0		4.66866943359375	-0.04846726989746094	0		5.6216357421875	0.11839740753173827	0		-0.1578651580810547	5.9172333984375	0		
0.06137682342529297	-0.003029314041137695	0		0.48428384399414065	-2.32070458984375	0		-1.0565867919921874	-0.1066748275756836	0		-0.8453360595703125	-2.4026796875	0		1.315184814453125	-0.6598516235351563	0		3.036051513671875	-0.04757577133178711	0		4.65629345703125	-0.04764839553833008	0		5.6141474609375	0.1087791290283203	0		-0.04284781646728516	5.9296669921875	0		
-0.018716108322143554	-3.1751099228858947E-4	0		0.4523636474609375	-2.320004638671875	0		-1.063797607421875	-0.10886565399169922	0		-0.8085780639648438	-2.418736572265625	0		1.326691162109375	-0.668197998046875	0		3.061590576171875	-0.06676345062255859	0		4.6600478515625	-0.05500974655151367	0		5.6110634765625	0.10720912933349609	0		-0.043917789459228515	5.93005419921875	0		
0.05232876205444336	-0.006285964012145996	0		0.4747080993652344	-2.323260986328125	0		-1.0748101806640624	-0.11502310180664063	0		-0.8502008666992188	-2.417437255859375	0		1.30264501953125	-0.6668897094726562	0		3.031828369140625	-0.06090456390380859	0		4.64103564453125	-0.06385930633544921	0		5.608244140625	0.10576529693603516	0		-0.04486850738525391	5.930423828125	0		
-0.024163414001464843	3.907549977302551E-4	0		0.42941836547851564	-2.323292724609375	0		-1.0634039306640626	-0.1126231689453125	0		-0.8535070190429688	-2.416846923828125	0		1.3118707275390624	-0.6661532592773437	0		3.051230712890625	-0.06086035919189453	0		4.65252978515625	-0.059143623352050784	0		5.5956826171875	0.10463597869873047	0		-0.044734310150146485	5.92975830078125	0		
0.0504561767578125	-0.0017077310085296632	0		0.4824003601074219	-2.326122802734375	0		-1.067634033203125	-0.10397886657714844	0		-0.8934412841796875	-2.412608642578125	0		1.303455810546875	-0.6600708618164063	0		3.041071044921875	-0.050207775115966795	0		4.65427587890625	-0.05414191436767578	0		5.6075078125	0.11119906616210938	0		-0.045494110107421874	5.93009375	0		
-0.028632055282592772	0.0010357160568237305	0		0.44187503051757815	-2.317218017578125	0		-1.0679300537109375	-0.11144855499267578	0		-0.8392297973632813	-2.41715478515625	0		1.301176025390625	-0.660077392578125	0		3.059803466796875	-0.05802779388427735	0		4.6480302734375	-0.06088207244873047	0		5.60541455078125	0.11015227508544922	0		-0.04618112182617187	5.9304130859375	0		
0.04642357635498047	-0.0011275080442428589	0		0.4633626708984375	-2.322474365234375	0		-1.0779974365234375	-0.11776973724365235	0		-0.890484375	-2.406748779296875	0		1.2960460205078126	-0.6640066528320312	0		3.057879150390625	-0.05839530181884765	0		4.64125830078125	-0.05349954223632813	0		5.599375	0.10131156921386719	0		-0.046809856414794924	5.93071728515625	0		
-0.03634477996826172	-0.002298579931259155	0		0.47103482055664064	-2.330472412109375	0		-1.0797454833984375	-0.11728064727783204	0		-0.8520070190429687	-2.424080078125	0		1.28807861328125	-0.6698580322265625	0		3.04306787109375	-0.062451652526855465	0		4.64125341796875	-0.06814682006835937	0		5.5876708984375	0.10070780181884766	0		-0.04837469482421875	5.93202685546875	0		
-0.03383058547973633	0.0018997360467910766	0		0.4172207946777344	-2.322276123046875	0		-1.0731934814453126	-0.1099825439453125	0		-0.9170286254882812	-2.425443115234375	0		1.3014769287109376	-0.6660986328125	0		3.033709716796875	-0.05154703521728515	0		4.632796875	-0.06253305053710938	0		5.5861259765625	0.10002574157714844	0		-0.04796466827392578	5.93028662109375	0		
-0.03219048690795898	0.005106365203857422	0		0.4754801330566406	-2.321250244140625	0		-1.0705704345703124	-0.10663876342773437	0		-0.8418466796875	-2.427547607421875	0		1.303016357421875	-0.66309326171875	0		3.0603369140625	-0.04929098892211914	0		4.63548583984375	-0.057049991607666016	0		5.594033203125	0.11526555633544922	0		-0.1799325714111328	5.9091171875	0		
0.04042981719970703	-9.115699678659439E-5	0		0.45792584228515626	-2.318747314453125	0		-1.08590869140625	-0.1079682388305664	0		-0.8594151000976562	-2.424868896484375	0		1.2927012939453124	-0.6598382568359376	0		3.046986328125	-0.05220999908447266	0		4.6510693359375	-0.06374843215942383	0		5.5834482421875	0.09895248413085937	0		-0.18141281127929687	5.91041259765625	0		
-0.037701461791992186	0.002671257019042969	0		0.4564875183105469	-2.318556396484375	0		-1.09520458984375	-0.11343686676025391	0		-0.8408895874023438	-2.4259189453125	0		1.288379150390625	-0.6636854248046875	0		3.041696044921875	-0.05824291229248047	0		4.63093896484375	-0.061674564361572266	0		5.5822939453125	0.09854151916503906	0		-0.049456005096435544	5.9310634765625	0		
